%TF.GenerationSoftware,KiCad,Pcbnew,(2015-09-17 BZR 6202)-product*%
%TF.CreationDate,2015-09-24T15:53:46+01:00*%
%TF.JobID,Atomizer,41746F6D697A65722E6B696361645F70,rev?*%
%TF.FileFunction,Copper,L1,Top,Signal*%
%FSLAX46Y46*%
G04 Gerber Fmt 4.6, Leading zero omitted, Abs format (unit mm)*
G04 Created by KiCad (PCBNEW (2015-09-17 BZR 6202)-product) date Thursday, 24 September 2015 15:53:46*
%MOMM*%
G01*
G04 APERTURE LIST*
%ADD10C,0.100000*%
%ADD11R,0.600000X0.500000*%
%ADD12R,1.778000X2.794000*%
%ADD13R,0.400000X0.600000*%
%ADD14R,0.600000X0.400000*%
%ADD15O,2.300000X1.600000*%
%ADD16R,2.032000X2.032000*%
%ADD17O,2.032000X2.032000*%
%ADD18O,1.501140X0.899160*%
%ADD19C,0.250000*%
G04 APERTURE END LIST*
D10*
D11*
X175810000Y-110490000D03*
X165820000Y-113030000D03*
D12*
X163322000Y-118110000D03*
X166878000Y-118110000D03*
D13*
X166820000Y-111760000D03*
D14*
X166370000Y-116020000D03*
X163830000Y-114750000D03*
X163830000Y-113850000D03*
X166370000Y-107500000D03*
X166370000Y-108400000D03*
D13*
X163380000Y-110490000D03*
D15*
X170180000Y-109220000D03*
X170180000Y-111760000D03*
X170180000Y-114300000D03*
X170180000Y-116840000D03*
X177800000Y-116840000D03*
X177800000Y-114300000D03*
X177800000Y-111760000D03*
X177800000Y-109220000D03*
D16*
X161290000Y-107950000D03*
D17*
X163830000Y-107950000D03*
D18*
X160020000Y-113030000D03*
X160020000Y-114300000D03*
X160020000Y-111760000D03*
D19*
X175810000Y-110490000D02*
X175810000Y-114850000D01*
X175810000Y-114850000D02*
X177800000Y-116840000D01*
X165820000Y-113030000D02*
X165820000Y-108950000D01*
X165820000Y-108950000D02*
X166370000Y-108400000D01*
X166370000Y-108400000D02*
X169360000Y-108400000D01*
X169360000Y-108400000D02*
X170180000Y-109220000D01*
X172720000Y-113030000D02*
X172720000Y-109220000D01*
X171450000Y-115570000D02*
X172720000Y-115570000D01*
X172720000Y-113030000D02*
X172720000Y-115570000D01*
X172720000Y-109220000D02*
X177800000Y-109220000D01*
X163830000Y-112210000D02*
X163830000Y-110940000D01*
X165100000Y-114300000D02*
X165100000Y-113030000D01*
X165100000Y-113030000D02*
X164280000Y-112210000D01*
X164280000Y-112210000D02*
X163830000Y-112210000D01*
X165100000Y-114750000D02*
X165100000Y-114300000D01*
X163830000Y-110940000D02*
X163380000Y-110490000D01*
X163830000Y-114750000D02*
X165100000Y-114750000D01*
X165100000Y-114750000D02*
X166370000Y-116020000D01*
X166370000Y-116020000D02*
X168460000Y-116020000D01*
X168910000Y-115570000D02*
X171450000Y-115570000D01*
X168460000Y-116020000D02*
X168910000Y-115570000D01*
X177800000Y-109220000D02*
X176530000Y-109220000D01*
X171450000Y-115570000D02*
X170180000Y-116840000D01*
X160020000Y-114300000D02*
X161290000Y-114300000D01*
X161290000Y-114300000D02*
X161290000Y-107950000D01*
X162560000Y-110490000D02*
X162560000Y-109220000D01*
X163830000Y-107950000D02*
X163830000Y-109220000D01*
X163380000Y-113850000D02*
X162560000Y-113030000D01*
X162560000Y-113030000D02*
X162560000Y-110490000D01*
X163380000Y-113850000D02*
X163830000Y-113850000D01*
X162560000Y-109220000D02*
X163830000Y-109220000D01*
X163830000Y-107950000D02*
X165100000Y-106680000D01*
X163830000Y-107950000D02*
X165100000Y-106680000D01*
X166370000Y-106680000D02*
X166370000Y-107500000D01*
X165100000Y-106680000D02*
X166370000Y-106680000D01*
X166820000Y-111760000D02*
X167640000Y-111760000D01*
X167640000Y-111760000D02*
X170180000Y-114300000D01*
M02*
