%TF.GenerationSoftware,KiCad,Pcbnew,(2015-09-17 BZR 6202)-product*%
%TF.CreationDate,2015-09-24T15:53:46+01:00*%
%TF.JobID,Atomizer,41746F6D697A65722E6B696361645F70,rev?*%
%TF.FileFunction,Legend,Top*%
%FSLAX46Y46*%
G04 Gerber Fmt 4.6, Leading zero omitted, Abs format (unit mm)*
G04 Created by KiCad (PCBNEW (2015-09-17 BZR 6202)-product) date Thursday, 24 September 2015 15:53:46*
%MOMM*%
G01*
G04 APERTURE LIST*
%ADD10C,0.100000*%
%ADD11C,0.150000*%
G04 APERTURE END LIST*
D10*
D11*
X166120000Y-113505000D02*
X166620000Y-113505000D01*
X166620000Y-112555000D02*
X166120000Y-112555000D01*
X162306000Y-116586000D02*
X162306000Y-119634000D01*
X165989000Y-119634000D02*
X167894000Y-119634000D01*
X167894000Y-119634000D02*
X167894000Y-116586000D01*
X167894000Y-116586000D02*
X165989000Y-116586000D01*
X164338000Y-116586000D02*
X162306000Y-116586000D01*
X162506000Y-116586000D02*
X162506000Y-119634000D01*
X162306000Y-119634000D02*
X164338000Y-119634000D01*
X166620000Y-111235000D02*
X166120000Y-111235000D01*
X166120000Y-112285000D02*
X166620000Y-112285000D01*
X165845000Y-115320000D02*
X165845000Y-115820000D01*
X166895000Y-115820000D02*
X166895000Y-115320000D01*
X163305000Y-114050000D02*
X163305000Y-114550000D01*
X164355000Y-114550000D02*
X164355000Y-114050000D01*
X166895000Y-108200000D02*
X166895000Y-107700000D01*
X165845000Y-107700000D02*
X165845000Y-108200000D01*
X164080000Y-109965000D02*
X163580000Y-109965000D01*
X163580000Y-111015000D02*
X164080000Y-111015000D01*
X166620000Y-109965000D02*
X166120000Y-109965000D01*
X166120000Y-111015000D02*
X166620000Y-111015000D01*
X170315000Y-106925000D02*
X170315000Y-108195000D01*
X177665000Y-106925000D02*
X177665000Y-108195000D01*
X177665000Y-119135000D02*
X177665000Y-117865000D01*
X170315000Y-119135000D02*
X170315000Y-117865000D01*
X170315000Y-106925000D02*
X177665000Y-106925000D01*
X170315000Y-119135000D02*
X177665000Y-119135000D01*
X170315000Y-108195000D02*
X169030000Y-108195000D01*
X162560000Y-106680000D02*
X165100000Y-106680000D01*
X159740000Y-106400000D02*
X161290000Y-106400000D01*
X162560000Y-106680000D02*
X162560000Y-109220000D01*
X161290000Y-109500000D02*
X159740000Y-109500000D01*
X159740000Y-109500000D02*
X159740000Y-106400000D01*
X162560000Y-109220000D02*
X165100000Y-109220000D01*
X165100000Y-109220000D02*
X165100000Y-106680000D01*
X158320000Y-111330000D02*
X158320000Y-114730000D01*
X158322944Y-111332944D02*
G75*
G02X162420000Y-113030000I1697056J-1697056D01*
G01*
X158322944Y-114727056D02*
G75*
G03X162420000Y-113030000I1697056J1697056D01*
G01*
X166203334Y-114657143D02*
X166155715Y-114704762D01*
X166012858Y-114752381D01*
X165917620Y-114752381D01*
X165774762Y-114704762D01*
X165679524Y-114609524D01*
X165631905Y-114514286D01*
X165584286Y-114323810D01*
X165584286Y-114180952D01*
X165631905Y-113990476D01*
X165679524Y-113895238D01*
X165774762Y-113800000D01*
X165917620Y-113752381D01*
X166012858Y-113752381D01*
X166155715Y-113800000D01*
X166203334Y-113847619D01*
X166584286Y-113847619D02*
X166631905Y-113800000D01*
X166727143Y-113752381D01*
X166965239Y-113752381D01*
X167060477Y-113800000D01*
X167108096Y-113847619D01*
X167155715Y-113942857D01*
X167155715Y-114038095D01*
X167108096Y-114180952D01*
X166536667Y-114752381D01*
X167155715Y-114752381D01*
X164933334Y-119737143D02*
X164885715Y-119784762D01*
X164742858Y-119832381D01*
X164647620Y-119832381D01*
X164504762Y-119784762D01*
X164409524Y-119689524D01*
X164361905Y-119594286D01*
X164314286Y-119403810D01*
X164314286Y-119260952D01*
X164361905Y-119070476D01*
X164409524Y-118975238D01*
X164504762Y-118880000D01*
X164647620Y-118832381D01*
X164742858Y-118832381D01*
X164885715Y-118880000D01*
X164933334Y-118927619D01*
X165266667Y-118832381D02*
X165885715Y-118832381D01*
X165552381Y-119213333D01*
X165695239Y-119213333D01*
X165790477Y-119260952D01*
X165838096Y-119308571D01*
X165885715Y-119403810D01*
X165885715Y-119641905D01*
X165838096Y-119737143D01*
X165790477Y-119784762D01*
X165695239Y-119832381D01*
X165409524Y-119832381D01*
X165314286Y-119784762D01*
X165266667Y-119737143D01*
X164933334Y-112212381D02*
X164600000Y-111736190D01*
X164361905Y-112212381D02*
X164361905Y-111212381D01*
X164742858Y-111212381D01*
X164838096Y-111260000D01*
X164885715Y-111307619D01*
X164933334Y-111402857D01*
X164933334Y-111545714D01*
X164885715Y-111640952D01*
X164838096Y-111688571D01*
X164742858Y-111736190D01*
X164361905Y-111736190D01*
X165885715Y-112212381D02*
X165314286Y-112212381D01*
X165600000Y-112212381D02*
X165600000Y-111212381D01*
X165504762Y-111355238D01*
X165409524Y-111450476D01*
X165314286Y-111498095D01*
X165552381Y-115736666D02*
X165076190Y-116070000D01*
X165552381Y-116308095D02*
X164552381Y-116308095D01*
X164552381Y-115927142D01*
X164600000Y-115831904D01*
X164647619Y-115784285D01*
X164742857Y-115736666D01*
X164885714Y-115736666D01*
X164980952Y-115784285D01*
X165028571Y-115831904D01*
X165076190Y-115927142D01*
X165076190Y-116308095D01*
X164647619Y-115355714D02*
X164600000Y-115308095D01*
X164552381Y-115212857D01*
X164552381Y-114974761D01*
X164600000Y-114879523D01*
X164647619Y-114831904D01*
X164742857Y-114784285D01*
X164838095Y-114784285D01*
X164980952Y-114831904D01*
X165552381Y-115403333D01*
X165552381Y-114784285D01*
X163012381Y-114466666D02*
X162536190Y-114800000D01*
X163012381Y-115038095D02*
X162012381Y-115038095D01*
X162012381Y-114657142D01*
X162060000Y-114561904D01*
X162107619Y-114514285D01*
X162202857Y-114466666D01*
X162345714Y-114466666D01*
X162440952Y-114514285D01*
X162488571Y-114561904D01*
X162536190Y-114657142D01*
X162536190Y-115038095D01*
X162012381Y-114133333D02*
X162012381Y-113514285D01*
X162393333Y-113847619D01*
X162393333Y-113704761D01*
X162440952Y-113609523D01*
X162488571Y-113561904D01*
X162583810Y-113514285D01*
X162821905Y-113514285D01*
X162917143Y-113561904D01*
X162964762Y-113609523D01*
X163012381Y-113704761D01*
X163012381Y-113990476D01*
X162964762Y-114085714D01*
X162917143Y-114133333D01*
X166203334Y-107132381D02*
X165870000Y-106656190D01*
X165631905Y-107132381D02*
X165631905Y-106132381D01*
X166012858Y-106132381D01*
X166108096Y-106180000D01*
X166155715Y-106227619D01*
X166203334Y-106322857D01*
X166203334Y-106465714D01*
X166155715Y-106560952D01*
X166108096Y-106608571D01*
X166012858Y-106656190D01*
X165631905Y-106656190D01*
X167060477Y-106465714D02*
X167060477Y-107132381D01*
X166822381Y-106084762D02*
X166584286Y-106799048D01*
X167203334Y-106799048D01*
X161123334Y-110942381D02*
X160790000Y-110466190D01*
X160551905Y-110942381D02*
X160551905Y-109942381D01*
X160932858Y-109942381D01*
X161028096Y-109990000D01*
X161075715Y-110037619D01*
X161123334Y-110132857D01*
X161123334Y-110275714D01*
X161075715Y-110370952D01*
X161028096Y-110418571D01*
X160932858Y-110466190D01*
X160551905Y-110466190D01*
X162028096Y-109942381D02*
X161551905Y-109942381D01*
X161504286Y-110418571D01*
X161551905Y-110370952D01*
X161647143Y-110323333D01*
X161885239Y-110323333D01*
X161980477Y-110370952D01*
X162028096Y-110418571D01*
X162075715Y-110513810D01*
X162075715Y-110751905D01*
X162028096Y-110847143D01*
X161980477Y-110894762D01*
X161885239Y-110942381D01*
X161647143Y-110942381D01*
X161551905Y-110894762D01*
X161504286Y-110847143D01*
X167473334Y-109672381D02*
X167140000Y-109196190D01*
X166901905Y-109672381D02*
X166901905Y-108672381D01*
X167282858Y-108672381D01*
X167378096Y-108720000D01*
X167425715Y-108767619D01*
X167473334Y-108862857D01*
X167473334Y-109005714D01*
X167425715Y-109100952D01*
X167378096Y-109148571D01*
X167282858Y-109196190D01*
X166901905Y-109196190D01*
X168330477Y-108672381D02*
X168140000Y-108672381D01*
X168044762Y-108720000D01*
X167997143Y-108767619D01*
X167901905Y-108910476D01*
X167854286Y-109100952D01*
X167854286Y-109481905D01*
X167901905Y-109577143D01*
X167949524Y-109624762D01*
X168044762Y-109672381D01*
X168235239Y-109672381D01*
X168330477Y-109624762D01*
X168378096Y-109577143D01*
X168425715Y-109481905D01*
X168425715Y-109243810D01*
X168378096Y-109148571D01*
X168330477Y-109100952D01*
X168235239Y-109053333D01*
X168044762Y-109053333D01*
X167949524Y-109100952D01*
X167901905Y-109148571D01*
X167854286Y-109243810D01*
X173228095Y-117562381D02*
X173228095Y-118371905D01*
X173275714Y-118467143D01*
X173323333Y-118514762D01*
X173418571Y-118562381D01*
X173609048Y-118562381D01*
X173704286Y-118514762D01*
X173751905Y-118467143D01*
X173799524Y-118371905D01*
X173799524Y-117562381D01*
X174799524Y-118562381D02*
X174228095Y-118562381D01*
X174513809Y-118562381D02*
X174513809Y-117562381D01*
X174418571Y-117705238D01*
X174323333Y-117800476D01*
X174228095Y-117848095D01*
X159202381Y-108688095D02*
X158202381Y-108688095D01*
X158202381Y-108307142D01*
X158250000Y-108211904D01*
X158297619Y-108164285D01*
X158392857Y-108116666D01*
X158535714Y-108116666D01*
X158630952Y-108164285D01*
X158678571Y-108211904D01*
X158726190Y-108307142D01*
X158726190Y-108688095D01*
X159202381Y-107164285D02*
X159202381Y-107735714D01*
X159202381Y-107450000D02*
X158202381Y-107450000D01*
X158345238Y-107545238D01*
X158440476Y-107640476D01*
X158488095Y-107735714D01*
X159297619Y-116935238D02*
X159250000Y-117030476D01*
X159154762Y-117125714D01*
X159011905Y-117268571D01*
X158964286Y-117363810D01*
X158964286Y-117459048D01*
X159202381Y-117411429D02*
X159154762Y-117506667D01*
X159059524Y-117601905D01*
X158869048Y-117649524D01*
X158535714Y-117649524D01*
X158345238Y-117601905D01*
X158250000Y-117506667D01*
X158202381Y-117411429D01*
X158202381Y-117220952D01*
X158250000Y-117125714D01*
X158345238Y-117030476D01*
X158535714Y-116982857D01*
X158869048Y-116982857D01*
X159059524Y-117030476D01*
X159154762Y-117125714D01*
X159202381Y-117220952D01*
X159202381Y-117411429D01*
X159202381Y-116030476D02*
X159202381Y-116601905D01*
X159202381Y-116316191D02*
X158202381Y-116316191D01*
X158345238Y-116411429D01*
X158440476Y-116506667D01*
X158488095Y-116601905D01*
M02*
